<?xml version="1.0" encoding="UTF-8" standalone="no"?>
<!-- Created with Inkscape (http://www.inkscape.org/) -->
<svg
   xmlns:dc="http://purl.org/dc/elements/1.1/"
   xmlns:cc="http://web.resource.org/cc/"
   xmlns:rdf="http://www.w3.org/1999/02/22-rdf-syntax-ns#"
   xmlns:svg="http://www.w3.org/2000/svg"
   xmlns="http://www.w3.org/2000/svg"
   xmlns:sodipodi="http://sodipodi.sourceforge.net/DTD/sodipodi-0.dtd"
   xmlns:inkscape="http://www.inkscape.org/namespaces/inkscape"
   width="210mm"
   height="297mm"
   id="svg2"
   sodipodi:version="0.32"
   inkscape:version="0.45"
   sodipodi:docname="banner.svg"
   sodipodi:docbase="/home/rodrigo/uel/3/engenharia/boscabelereiros/src"
   inkscape:output_extension="org.inkscape.output.svg.inkscape"
   inkscape:export-filename="/home/rodrigo/uel/3/engenharia/boscabelereiros/img/banner.png"
   inkscape:export-xdpi="78.833939"
   inkscape:export-ydpi="78.833939"
   sodipodi:modified="TRUE">
  <defs
     id="defs4" />
  <sodipodi:namedview
     id="base"
     pagecolor="#ffffff"
     bordercolor="#666666"
     borderopacity="1.0"
     inkscape:pageopacity="0.0"
     inkscape:pageshadow="2"
     inkscape:zoom="0.47702208"
     inkscape:cx="372.04724"
     inkscape:cy="861.59533"
     inkscape:document-units="px"
     inkscape:current-layer="layer1"
     showguides="true"
     inkscape:guide-bbox="true"
     inkscape:window-width="1280"
     inkscape:window-height="719"
     inkscape:window-x="0"
     inkscape:window-y="32">
    <sodipodi:guide
       orientation="horizontal"
       position="949.14504"
       id="guide2300" />
    <sodipodi:guide
       orientation="horizontal"
       position="1043.9458"
       id="guide2316" />
    <sodipodi:guide
       orientation="horizontal"
       position="983.65405"
       id="guide2318" />
    <sodipodi:guide
       orientation="horizontal"
       position="975.24901"
       id="guide2320" />
  </sodipodi:namedview>
  <metadata
     id="metadata7">
    <rdf:RDF>
      <cc:Work
         rdf:about="">
        <dc:format>image/svg+xml</dc:format>
        <dc:type
           rdf:resource="http://purl.org/dc/dcmitype/StillImage" />
      </cc:Work>
    </rdf:RDF>
  </metadata>
  <g
     inkscape:label="Camada 1"
     inkscape:groupmode="layer"
     id="layer1">
    <g
       id="g2324">
      <path
         sodipodi:nodetypes="cccczccccccc"
         id="path2197"
         d="M 7.5803763,148.93309 C 53.533761,117.24196 121.81132,41.289884 164.66183,8.5336582 C 172.99627,8.9828687 204.71952,8.0556402 211.6883,8.8392807 C 211.28861,26.575752 170.62442,45.532786 161.82377,46.720724 C 166.47873,51.122915 169.76851,65.025946 150.5085,80.356054 C 131.24849,95.686162 66.877726,98.731305 47.236761,103.24272 C 49.625316,101.28509 52.939296,99.356542 55.679454,95.945901 C 82.731628,95.908745 184.17955,85.906963 156.0748,44.771645 C 209.81556,30.867293 224.40574,4.7028177 164.5756,13.417262 C 158.65956,13.874572 151.34717,22.714899 146.91187,26.069882 C 101.30471,69.707648 68.755318,110.76688 21.010608,147.84339 C 17.444706,147.43792 13.312459,147.42414 7.5803763,148.93309 z "
         style="fill:#000000;fill-opacity:1;stroke:none;stroke-width:29.70000076;stroke-linecap:round;stroke-linejoin:round;stroke-miterlimit:4;stroke-dasharray:none;stroke-opacity:1" />
      <path
         sodipodi:nodetypes="ccccccccccccccccccccccccccc"
         id="path2199"
         d="M 145.29465,98.397843 C 148.55876,99.316553 153.34985,98.248073 157.92985,96.866867 C 161.99793,95.294052 165.11963,88.14998 164.51711,86.101606 C 163.9662,84.138996 163.69626,83.127409 160.99944,82.891701 C 157.76316,82.330036 163.18847,78.883876 164.27006,79.808677 C 167.16977,80.512308 169.44931,83.541536 173.30774,82.879971 C 182.59273,81.536045 192.88087,77.622604 202.7231,74.778337 C 204.11084,74.454189 209.20251,72.134862 208.34207,72.962732 C 206.46882,74.34744 202.61941,74.709408 206.60627,72.614943 C 211.72378,70.517714 208.99084,75.552604 208.96733,77.630664 C 209.3388,82.565983 213.23912,85.724384 211.31365,91.776061 C 204.84469,101.11138 191.78681,103.44523 184.78697,103.12434 C 192.90852,98.556062 208.0234,99.43792 202.59151,91.892051 C 199.9058,87.399789 198.17819,83.342 200.309,76.986816 C 202.74676,72.969589 208.549,70.657038 212.69764,68.798208 C 216.62616,68.444358 212.33945,73.45029 209.08369,73.906761 C 203.73743,75.817897 198.40322,77.669104 193.06518,79.536424 C 182.64524,83.005422 173.13115,83.489918 163.49387,84.853866 C 160.00086,85.238403 156.75412,85.109743 154.30166,84.127821 C 156.01759,80.489558 161.29367,78.640319 164.83312,77.419729 C 170.39629,75.753287 172.13043,81.278775 172.8892,84.481845 C 173.69356,86.799159 171.84768,91.173132 167.38956,93.639158 C 160.73785,97.668843 153.83941,100.07992 147.34622,101.98334 C 142.3045,103.26282 137.01946,103.96569 134.3281,101.96382 C 132.63285,99.662147 135.82641,93.251396 140.69604,90.814153 C 145.57702,87.814062 151.52028,83.557759 156.38386,81.673093 C 149.87804,86.227843 136.73968,94.115191 145.29465,98.397843 z "
         style="fill:#000000;fill-opacity:1;stroke:none;stroke-width:29.70000076;stroke-linecap:round;stroke-linejoin:round;stroke-miterlimit:4;stroke-dasharray:none;stroke-opacity:1" />
      <path
         sodipodi:nodetypes="ccccccccccccccccccccccccccc"
         id="path2201"
         d="M 243.52945,83.949103 C 240.40582,82.382291 235.54981,80.47559 229.41927,85.103463 C 224.39306,88.612177 219.91897,94.750814 222.7409,97.040869 C 226.23468,100.47537 235.05573,97.617641 242.32991,95.207204 C 258.34703,89.965213 275.07345,81.532734 290.37388,78.7283 C 295.27224,76.853496 301.60263,76.16495 300.96949,80.401445 C 299.57399,85.360534 288.95141,89.082404 289.30551,84.785565 C 288.9314,80.462016 280.49961,84.375864 275.72066,87.485804 C 269.49536,90.368707 265.14609,98.498262 272.31079,96.857474 C 277.38025,96.390646 282.99905,93.674573 288.43801,90.959695 C 295.3498,87.961698 292.74094,94.58394 296.95937,94.630396 C 303.13992,94.458022 310.61285,91.692611 317.52393,89.931559 C 319.22169,89.462484 326.88115,86.979587 321.43262,89.736318 C 309.16638,95.46502 297.49213,97.647737 286.55491,99.262718 C 281.66946,99.192221 283.71683,91.803897 290.06804,88.856878 C 296.45359,86.138062 292.33947,93.602565 287.50228,94.138512 C 279.32675,97.589223 271.71459,100.04093 263.78266,101.10739 C 259.36202,101.05147 256.19909,100.06526 260.13653,95.792138 C 264.66379,90.683206 271.4675,88.0345 277.1913,84.591361 C 284.51607,80.67148 292.77316,76.572915 298.5823,77.313694 C 302.65861,79.037284 291.04715,88.685577 291.0405,83.617711 C 287.72246,80.970967 280.09089,84.103788 274.17954,85.420165 C 256.28156,90.301033 236.88283,100.29525 219.65716,103.14004 C 214.26341,103.75457 210.17575,100.66088 213.82551,95.107115 C 218.60975,88.018308 228.46841,81.658853 236.42635,78.9717 C 242.20087,77.054678 247.85624,76.49531 251.11617,78.418248 C 252.30824,80.922406 245.4607,82.42847 243.52945,83.949103 z "
         style="fill:#000000;fill-opacity:1;stroke:none;stroke-width:29.70000076;stroke-linecap:round;stroke-linejoin:round;stroke-miterlimit:4;stroke-dasharray:none;stroke-opacity:1" />
      <path
         sodipodi:nodetypes="ccccssccccsssccc"
         d="M 405.01594,8.7559445 C 391.10759,24.801208 357.1597,61.239265 341.57369,76.644772 C 335.13206,83.531912 337.74012,81.505012 327.69886,85.30422 C 336.05094,81.186691 338.90711,81.370112 346.33355,78.761173 C 353.23473,77.152613 363.91673,75.599243 365.88383,79.793162 C 367.41805,83.064178 368.41008,85.319523 361.96941,91.442652 C 352.94478,100.02235 340.30792,103.05429 331.45655,103.21714 C 326.74705,102.59362 317.9289,102.30595 316.3187,96.644774 L 325.76602,92.626569 C 327.31186,98.052722 335.58674,98.600019 340.23443,98.925748 C 343.80877,98.823653 349.46769,97.266784 353.05332,94.625773 C 359.51348,89.867519 359.05551,87.595236 356.85264,83.872688 C 354.58204,80.035681 348.17599,80.905658 341.1568,83.649322 C 332.96961,86.849537 316.35476,93.986444 332.72416,79.797403 C 352.78778,66.257306 384.91097,28.351972 395.70442,12.166546 L 405.01594,8.7559445 z "
         id="path2261"
         style="fill:#000000;fill-opacity:1;stroke:none;stroke-width:29.70000076;stroke-linecap:round;stroke-linejoin:round;stroke-miterlimit:4;stroke-dasharray:none;stroke-opacity:1" />
      <path
         sodipodi:nodetypes="ccccccccssccccczccccccscccccccccccccccs"
         id="path2263"
         d="M 377.85755,95.486004 C 389.52072,120.02696 466.5844,43.328 490.24201,22.265856 C 495.07707,17.692003 497.32631,14.684451 490.81753,15.171528 C 449.92015,28.097894 402.70391,92.471435 429.64823,100.56373 C 440.03179,100.74331 446.48049,95.941512 455.78774,89.759074 C 483.28532,73.700471 483.09819,62.130812 464.21707,76.980233 C 427.67138,105.50256 472.62663,112.45873 492.25928,77.072383 C 497.51709,80.48674 532.32732,72.435499 514.34253,81.892791 C 485.63045,107.01987 519.98213,101.03987 534.46755,90.648097 C 552.65743,77.598767 558.25633,60.480778 540.65538,77.205111 C 500.40022,115.45534 551.13118,95.165362 571.02766,82.874908 C 576.3901,78.364878 594.57117,67.002962 580.899,79.195237 C 560.00723,106.01287 595.09868,104.74313 608.62866,80.167909 C 624.95286,72.385691 633.40509,82.485697 649.16346,78.972337 C 659.19098,79.757136 625.11328,89.367272 637.97228,84.513013 C 590.22668,111.94406 649.31788,91.76946 652.81538,96.839435 C 656.31288,101.90941 627.2266,107.98732 616.67393,98.069493 C 608.88341,83.187067 646.77718,79.186199 647.6446,80.411363 C 608.33121,91.753143 625.15165,71.557062 612.87918,83.080981 C 598.23376,95.229347 579.14741,104.42281 566.43647,103.19728 C 550.65977,103.56295 576.8539,74.267344 585.36237,74.67687 C 569.18947,86.135829 551.55282,93.749722 534.69388,101.09699 C 524.5259,106.12403 522.85962,101.0995 524.74224,96.417545 C 533.25007,75.259099 543.18167,66.637232 552.4487,69.413802 C 547.2431,89.245826 519.41771,101.77085 503.83873,102.99267 C 489.98569,106.19238 496.62099,87.502157 512.29511,81.109679 C 506.26859,82.707454 489.93341,84.599134 491.62122,81.971516 C 504.94975,74.651785 486.62984,90.235734 474.6595,97.989425 C 459.21269,108.19689 448.09835,102.34022 450.0604,91.063992 C 451.99564,80.023162 467.99673,68.420148 478.96438,68.731678 C 478.41019,78.138492 459.6957,88.28791 448.11979,95.435507 C 435.74269,103.2287 417.7329,108.21314 419.43598,96.256463 C 419.67577,70.62086 434.09659,50.875247 468.17402,25.264502 C 484.83009,12.774898 499.6319,6.7761033 506.25109,10.989563 C 482.66923,34.697939 441.13945,69.685694 412.33221,89.832905 C 394.68733,100.34506 392.97982,104.96313 371.25524,102.85938 C 352.29558,78.585678 429.48263,67.509393 398.14983,87.077071 C 391.99536,90.027401 378.85205,89.421147 382.04568,87.999349 C 437.46333,74.64927 368.15878,75.078408 377.85755,95.486004 z "
         style="fill:#000000;fill-opacity:1;stroke:none;stroke-width:29.70000076;stroke-linecap:round;stroke-linejoin:round;stroke-miterlimit:4;stroke-dasharray:none;stroke-opacity:1" />
      <path
         sodipodi:nodetypes="ccccc"
         d="M 600.85695,62.503276 C 598.22515,66.461575 595.01152,68.694265 594.61313,68.729668 L 584.21085,68.768325 C 584.83238,68.323268 592.28248,65.40622 595.12527,62.151081 L 600.85695,62.503276 z "
         id="path2314"
         style="opacity:1;fill:#000000;fill-opacity:1;stroke:none;stroke-width:29.70000076;stroke-linecap:round;stroke-linejoin:round;stroke-miterlimit:4;stroke-dasharray:none;stroke-opacity:1" />
      <path
         sodipodi:nodetypes="ccccccccccccccccccccccccccc"
         id="path2322"
         d="M 666.65701,98.397851 C 669.92112,99.316561 674.71221,98.248081 679.29221,96.866871 C 683.36029,95.294061 686.48199,88.149984 685.87947,86.10161 C 685.32856,84.139 685.05862,83.127413 682.3618,82.891705 C 679.12552,82.33004 684.55083,78.88388 685.63242,79.808681 C 688.53213,80.512312 690.81167,83.54154 694.6701,82.879975 C 703.95509,81.536049 714.24323,77.622608 724.08546,74.778341 C 725.4732,74.454193 730.56487,72.134866 729.70443,72.962736 C 727.83118,74.347444 723.98177,74.709412 727.96863,72.614947 C 733.08614,70.517718 730.3532,75.552608 730.32969,77.630668 C 730.70116,82.565987 734.60148,85.724388 732.67601,91.776065 C 726.20705,101.11138 713.14917,103.44523 706.14933,103.12434 C 714.27088,98.556071 729.38576,99.437921 723.95387,91.892055 C 721.26816,87.399793 719.54055,83.342004 721.67136,76.98682 C 724.10912,72.969593 729.91136,70.657042 734.06,68.798212 C 737.98852,68.444362 733.70181,73.450294 730.44605,73.906765 C 725.09979,75.817901 719.76558,77.669108 714.42754,79.536428 C 704.0076,83.005426 694.49351,83.489922 684.85623,84.85387 C 681.36322,85.238407 678.11648,85.109747 675.66402,84.127825 C 677.37995,80.489562 682.65603,78.640323 686.19548,77.419733 C 691.75865,75.753291 693.49279,81.278779 694.25156,84.481849 C 695.05592,86.799163 693.21004,91.173136 688.75192,93.639162 C 682.10021,97.668851 675.20177,100.07992 668.70858,101.98334 C 663.66686,103.26282 658.38182,103.96569 655.69046,101.96382 C 653.99521,99.662151 657.18877,93.2514 662.0584,90.814157 C 666.93938,87.814066 672.88264,83.557763 677.74622,81.673097 C 671.2404,86.227847 658.10204,94.115191 666.65701,98.397851 z "
         style="fill:#000000;fill-opacity:1;stroke:none;stroke-width:29.70000076;stroke-linecap:round;stroke-linejoin:round;stroke-miterlimit:4;stroke-dasharray:none;stroke-opacity:1" />
    </g>
  </g>
</svg>
