<?xml version="1.0" encoding="UTF-8" standalone="no"?>
<!-- Created with Inkscape (http://www.inkscape.org/) -->
<svg
   xmlns:dc="http://purl.org/dc/elements/1.1/"
   xmlns:cc="http://web.resource.org/cc/"
   xmlns:rdf="http://www.w3.org/1999/02/22-rdf-syntax-ns#"
   xmlns:svg="http://www.w3.org/2000/svg"
   xmlns="http://www.w3.org/2000/svg"
   xmlns:xlink="http://www.w3.org/1999/xlink"
   xmlns:sodipodi="http://sodipodi.sourceforge.net/DTD/sodipodi-0.dtd"
   xmlns:inkscape="http://www.inkscape.org/namespaces/inkscape"
   width="744.09448819"
   height="1052.3622047"
   id="svg2"
   sodipodi:version="0.32"
   inkscape:version="0.44.1"
   sodipodi:docbase="D:\uel\3\engenharia"
   sodipodi:docname="logo.svg"
   inkscape:export-filename="D:\uel\3\engenharia\logo-small.png"
   inkscape:export-xdpi="8.4322577"
   inkscape:export-ydpi="8.4322577">
  <defs
     id="defs4">
    <linearGradient
       id="linearGradient2778">
      <stop
         style="stop-color:black;stop-opacity:1;"
         offset="0"
         id="stop2780" />
      <stop
         id="stop2786"
         offset="0.5"
         style="stop-color:#7c7474;stop-opacity:1;" />
      <stop
         style="stop-color:black;stop-opacity:1;"
         offset="1"
         id="stop2782" />
    </linearGradient>
    <radialGradient
       inkscape:collect="always"
       xlink:href="#linearGradient2778"
       id="radialGradient4585"
       cx="337.60257"
       cy="6.3306389"
       fx="337.60257"
       fy="6.3306389"
       r="182.10204"
       gradientTransform="matrix(-0.970536,1.309399,-1.233747,-0.914463,673.0686,-392.4416)"
       gradientUnits="userSpaceOnUse" />
    <radialGradient
       inkscape:collect="always"
       xlink:href="#linearGradient2778"
       id="radialGradient4601"
       gradientUnits="userSpaceOnUse"
       gradientTransform="matrix(-0.970536,1.309399,-1.233747,-0.914463,673.0686,-392.4416)"
       cx="337.60257"
       cy="6.3306389"
       fx="337.60257"
       fy="6.3306389"
       r="182.10204" />
  </defs>
  <sodipodi:namedview
     id="base"
     pagecolor="#ffffff"
     bordercolor="#666666"
     borderopacity="1.0"
     gridtolerance="10000"
     guidetolerance="10"
     objecttolerance="10"
     inkscape:pageopacity="0.0"
     inkscape:pageshadow="2"
     inkscape:zoom="0.5169323"
     inkscape:cx="372.04724"
     inkscape:cy="680.94024"
     inkscape:document-units="px"
     inkscape:current-layer="layer1"
     inkscape:window-width="1280"
     inkscape:window-height="740"
     inkscape:window-x="-4"
     inkscape:window-y="-4"
     showguides="true"
     inkscape:guide-bbox="true" />
  <metadata
     id="metadata7">
    <rdf:RDF>
      <cc:Work
         rdf:about="">
        <dc:format>image/svg+xml</dc:format>
        <dc:type
           rdf:resource="http://purl.org/dc/dcmitype/StillImage" />
      </cc:Work>
    </rdf:RDF>
  </metadata>
  <g
     inkscape:label="Layer 1"
     inkscape:groupmode="layer"
     id="layer1">
    <g
       id="g4595"
       transform="matrix(1.810129,0,0,1.810129,-231.4206,14.01719)">
      <path
         sodipodi:nodetypes="cscscsscscccccs"
         id="path4591"
         d="M 246.90792,68.75144 C 234.16681,96.747967 244.43288,128.94444 235.26463,148.23149 C 199.12627,224.25498 163.21422,218.97959 145.29953,200.37189 C 172.02203,236.94081 186.79865,294.68068 256.58718,302.38355 C 270.47792,303.91673 277.38514,305.13113 294.94556,304.20571 C 302.46411,303.67272 321.11905,269.45115 327.07892,274.10479 C 358.53545,298.667 397.50916,313.71891 435.80435,248.17493 C 438.98787,242.72619 447.38691,274.12687 453.29167,272.29748 C 462.94435,268.88985 461.50118,270.41339 461.82229,266.04169 C 465.7087,213.13123 519.87604,221.25672 523.92121,183.59147 C 507.55916,176.90025 493.55933,164.5389 480.70551,148.69701 C 486.46804,137.16044 496.31411,125.63225 497.33477,123.13381 C 491.33468,119.66128 464.68409,119.74977 460.16952,119.50151 C 447.33894,99.081894 435.05126,76.052746 421.80365,53.11964 C 386.54186,-5.2434174 273.08935,11.222006 246.90792,68.75144 z "
         style="fill:black;fill-opacity:1;fill-rule:evenodd;stroke:black;stroke-width:1.05093646px;stroke-linecap:butt;stroke-linejoin:miter;stroke-opacity:1" />
      <path
         sodipodi:nodetypes="csccsccccccss"
         id="path1872"
         d="M 252.31595,74.36886 C 241.62325,101.61433 248.55518,138.09317 239.83129,156.44542 C 205.44447,228.78423 173.04695,227.90376 156.00054,210.19793 C 203.06531,260.77543 185.98347,299.54255 294.6367,294.54549 C 321.66931,263.27428 379.42739,234.51245 320.1543,197.18337 C 294.64245,181.11648 292.14681,163.51091 309.79517,118.0397 C 385.94662,95.429838 410.4904,160.21466 401.60151,179.40435 C 419.70505,159.0806 423.27779,130.53993 408.53466,106.93151 C 425.91038,131.19598 482.68329,152.95532 470.81451,181.27615 C 445.46329,198.40075 418.4682,219.74962 458.10038,271.3666 C 451.8691,214.09445 529.52135,216.08875 518.04526,184.17841 C 477.13495,167.44824 451.74454,113.46526 420.8771,60.03025 C 386.84054,1.1091364 276.31337,13.222403 252.31595,74.36886 z "
         style="fill:url(#radialGradient4601);fill-opacity:1;fill-rule:evenodd;stroke:black;stroke-width:1px;stroke-linecap:butt;stroke-linejoin:miter;stroke-opacity:1" />
      <path
         sodipodi:nodetypes="cccssscsssc"
         id="path2788"
         d="M 361.53867,122.70348 C 334.95803,113.17563 329.09459,114.26392 270.33553,131.07234 C 311.12379,148.89778 287.79912,146.74284 304.0056,171.80315 C 310.7474,180.03002 325.72536,193.40308 339.38141,196.02102 C 365.81394,201.08828 392.10604,189.92626 397.9143,171.07084 C 403.72255,152.21541 383.99277,130.75217 361.53867,122.70348 z M 358.74061,133.17492 C 381.12398,137.46593 395.19297,153.78228 390.31608,169.61422 C 385.43918,185.44614 363.45565,194.82295 341.07228,190.53193 C 318.68891,186.24092 304.61175,169.95109 309.48864,154.11915 C 314.36554,138.28722 336.35724,128.8839 358.74061,133.17492 z "
         style="fill:white;fill-opacity:1;stroke:none;stroke-width:6.47744036;stroke-linecap:round;stroke-linejoin:round;stroke-miterlimit:4;stroke-dasharray:none;stroke-opacity:1" />
      <path
         sodipodi:nodetypes="cccsssccsscccccc"
         id="path3675"
         d="M 467.375,121.34375 C 449.94783,121.40629 431.38181,124.12445 417.25,136.78125 L 417.0625,144.03125 C 423.7675,138.28445 433.11864,134.95683 442.78125,135.71875 C 459.3549,137.02562 470.36402,149.79906 467.46875,164.21875 C 464.57347,178.63844 448.85489,189.27562 432.28125,187.96875 C 420.15618,187.01266 411.02642,179.93839 408.125,170.5625 L 404.0625,175.875 C 408.57617,185.19877 418.56754,191.96624 431.28125,192.96875 C 450.85307,194.51204 472.02664,182.13995 473.09375,164.65625 C 474.62245,139.60983 502.89188,120.66752 494.53125,122.4375 C 486.50283,122.09891 477.11309,121.3088 467.375,121.34375 z M 401.77233,159.73211 C 400.84994,164.37798 401.49979,168.63175 402.80803,172.75445 C 403.55229,171.08314 403.03057,167.1754 403.20986,164.56247 L 401.77233,159.73211 z "
         style="fill:white;fill-opacity:1;stroke:none;stroke-width:6.47744036;stroke-linecap:round;stroke-linejoin:round;stroke-miterlimit:4;stroke-dasharray:none;stroke-opacity:1" />
    </g>
  </g>
</svg>
